<svg width="160" height="26" viewBox="0 0 160 26" fill="none" xmlns="http://www.w3.org/2000/svg">
<path d="M140.322 13.3589L142.29 7.72532C142.491 7.15461 143.028 6.79188 143.634 6.82485C144.238 6.85783 144.735 7.27889 144.87 7.86737L146.673 15.7585L148.652 8.28335C148.809 7.68981 149.326 7.2865 149.943 7.28143C149.945 7.28143 149.95 7.28143 149.953 7.28143C150.562 7.28143 151.082 7.67459 151.247 8.26306L152.573 12.986H160C159.995 5.87873 154.23 0.115784 147.12 0.115784C140.007 0.115784 134.239 5.88128 134.239 12.9962C134.239 13.1154 134.242 13.2372 134.244 13.3564H140.322V13.3589Z" fill="url(#paint0_linear_149_4733)"/>
<path d="M152.269 14.7362C151.668 14.7362 151.135 14.3329 150.973 13.7546L149.963 10.1578L147.944 17.7851C147.784 18.3863 147.264 18.787 146.645 18.787C146.638 18.787 146.63 18.787 146.62 18.787C145.991 18.7769 145.471 18.3558 145.331 17.742L143.475 9.62262L141.874 14.2061C141.686 14.7464 141.177 15.1091 140.603 15.1091H134.409C135.414 21.2196 140.72 25.8842 147.117 25.8842C153.641 25.8842 159.031 21.0319 159.881 14.7413H152.269V14.7362Z" fill="url(#paint1_linear_149_4733)"/>
<path d="M16.6252 8.21836C14.6467 8.21836 12.888 9.12519 11.9537 10.6915C10.9919 9.12519 9.37058 8.21836 7.36456 8.21836C5.5509 8.21836 4.09448 8.93283 3.32505 10.3893V8.54812H0V23.6345H3.5174V14.7036C3.5174 12.6701 4.67155 11.461 6.37529 11.461C8.10652 11.461 9.26066 12.6701 9.26066 14.7036V23.6345H12.7781V14.7036C12.7781 12.6701 13.9047 11.461 15.636 11.461C17.3672 11.461 18.4938 12.6701 18.4938 14.7036V23.6345H22.0113V13.8792C22.0113 10.4717 19.7579 8.21836 16.6252 8.21836Z" fill="#0A80C5"/>
<path d="M39.5654 15.5829C39.5654 11.5434 36.4602 8.21836 32.1734 8.21836C27.8865 8.21836 24.589 11.5709 24.589 16.0776C24.589 20.4743 27.7766 23.9642 32.4207 23.9642C35.5534 23.9642 38.0266 22.4254 38.9609 20.2545L36.103 18.853C35.416 20.0621 34.1794 20.8865 32.4482 20.8865C30.1674 20.8865 28.4636 19.4026 28.2438 17.0943H39.3731C39.5105 16.6821 39.5654 16.105 39.5654 15.5829ZM28.3262 14.4288C28.7384 12.3128 30.2498 11.1037 32.1734 11.1037C34.0695 11.1037 35.6633 12.4777 35.8007 14.4288H28.3262Z" fill="#0A80C5"/>
<path d="M53.7559 2.85982V10.1694C52.6842 8.96031 50.953 8.24584 49.0019 8.24584C44.6326 8.24584 41.3076 11.7083 41.3076 16.1325C41.3076 20.5568 44.6326 23.9642 49.0019 23.9642C50.9805 23.9642 52.8491 23.2498 53.9757 21.9582V23.6345H57.2733V2.85982H53.7559ZM49.3866 20.7491C46.831 20.7491 44.9624 18.8255 44.9624 16.1325C44.9624 13.4395 46.831 11.4884 49.3866 11.4884C51.9148 11.4884 53.7559 13.412 53.7559 16.1325C53.7559 18.853 51.9148 20.7491 49.3866 20.7491Z" fill="#0A80C5"/>
<path d="M60.8613 6.56958H64.3787V2.91478H60.8613V6.56958ZM60.8613 23.6345H64.3787V8.54812H60.8613V23.6345Z" fill="#0A80C5"/>
<path d="M73.9104 23.9642C77.4278 23.9642 79.8735 22.0956 79.8735 19.3751C79.8735 17.3141 78.4445 15.7478 75.779 15.0333L73.0035 14.2914C72.2341 14.0441 71.1899 13.6593 71.1899 12.6701C71.1899 11.7358 72.0967 11.1312 73.4707 11.1312C75.2019 11.1312 76.5484 11.9831 77.1255 13.3845L79.846 12.1205C78.9117 9.70227 76.4934 8.21836 73.4707 8.21836C70.0357 8.21836 67.7274 10.087 67.7274 12.8075C67.7274 14.8685 69.0464 16.4073 71.7669 17.1218L74.405 17.8088C75.2843 18.0561 76.411 18.4408 76.411 19.485C76.411 20.4743 75.3943 21.1338 73.9104 21.1338C72.0692 21.1338 70.5853 20.1995 69.7884 18.4408L67.0679 19.7049C68.0847 22.4803 70.7777 23.9642 73.9104 23.9642Z" fill="#0A80C5"/>
<path d="M82.6538 23.6345H86.1712V2.83234H82.6538V23.6345Z" fill="#0A80C5"/>
<path d="M89.7634 6.56958H93.2808V2.91478H89.7634V6.56958ZM89.7634 23.6345H93.2808V8.54812H89.7634V23.6345Z" fill="#0A80C5"/>
<path d="M104.571 8.21836C102.647 8.21836 101.054 8.96031 100.202 10.3068V8.54812H96.8767V23.6345H100.394V14.7036C100.394 12.725 101.713 11.461 103.609 11.461C105.533 11.461 106.824 12.7525 106.824 14.7036V23.6345H110.342V13.8792C110.342 10.5541 107.951 8.21836 104.571 8.21836Z" fill="#0A80C5"/>
<path d="M127.882 15.5829C127.882 11.5434 124.776 8.21836 120.49 8.21836C116.203 8.21836 112.905 11.5709 112.905 16.0776C112.905 20.4743 116.093 23.9642 120.737 23.9642C123.87 23.9642 126.343 22.4254 127.277 20.2545L124.419 18.853C123.732 20.0621 122.496 20.8865 120.764 20.8865C118.484 20.8865 116.78 19.4026 116.56 17.0943H127.689C127.827 16.6821 127.882 16.105 127.882 15.5829ZM116.642 14.4288C117.055 12.3128 118.566 11.1037 120.49 11.1037C122.386 11.1037 123.979 12.4777 124.117 14.4288H116.642Z" fill="#0A80C5"/>
<defs>
<linearGradient id="paint0_linear_149_4733" x1="134.24" y1="7.94085" x2="160" y2="7.94085" gradientUnits="userSpaceOnUse">
<stop offset="0.000351356" stop-color="#0A80C5"/>
<stop offset="0.2509" stop-color="#1189CB"/>
<stop offset="0.5674" stop-color="#1E9CD7"/>
<stop offset="0.8652" stop-color="#0075BE"/>
<stop offset="0.9944" stop-color="#005B97"/>
</linearGradient>
<linearGradient id="paint1_linear_149_4733" x1="134.412" y1="17.7501" x2="159.883" y2="17.7501" gradientUnits="userSpaceOnUse">
<stop offset="0.000351356" stop-color="#0A80C5"/>
<stop offset="0.2509" stop-color="#1189CB"/>
<stop offset="0.5674" stop-color="#1E9CD7"/>
<stop offset="0.8652" stop-color="#0075BE"/>
<stop offset="0.9944" stop-color="#005B97"/>
</linearGradient>
</defs>
</svg>
