<svg width="249" height="40" viewBox="0 0 249 40" fill="none" xmlns="http://www.w3.org/2000/svg">
<path d="M217.82 20.5571L220.875 11.8122C221.186 10.9263 222.021 10.3632 222.962 10.4144C223.899 10.4656 224.671 11.1192 224.88 12.0327L227.679 24.2819L230.75 12.6784C230.994 11.7571 231.798 11.131 232.754 11.1231C232.758 11.1231 232.766 11.1231 232.77 11.1231C233.715 11.1231 234.522 11.7334 234.778 12.6469L236.837 19.9783H248.366C248.358 8.94575 239.409 0 228.372 0C217.332 0 208.378 8.9497 208.378 19.9941C208.378 20.1792 208.382 20.3681 208.386 20.5532H217.82V20.5571Z" fill="white"/>
<path d="M236.365 22.6952C235.432 22.6952 234.605 22.0691 234.353 21.1714L232.786 15.5882L229.652 27.4279C229.403 28.3611 228.596 28.9832 227.636 28.9832C227.624 28.9832 227.612 28.9832 227.596 28.9832C226.62 28.9675 225.813 28.3138 225.596 27.361L222.714 14.7574L220.229 21.8723C219.938 22.7109 219.147 23.274 218.257 23.274H208.642C210.201 32.7592 218.438 40 228.368 40C238.495 40 246.862 32.4678 248.181 22.7031H236.365V22.6952Z" fill="white"/>
<path d="M25.8071 12.5775C22.7359 12.5775 20.0059 13.9852 18.5555 16.4166C17.0626 13.9852 14.5458 12.5775 11.4319 12.5775C8.6166 12.5775 6.35581 13.6866 5.16143 15.9474V13.0894H0V36.5078H5.46002V22.6444C5.46002 19.4879 7.25159 17.611 9.89629 17.611C12.5836 17.611 14.3752 19.4879 14.3752 22.6444V36.5078H19.8352V22.6444C19.8352 19.4879 21.5841 17.611 24.2715 17.611C26.9589 17.611 28.7078 19.4879 28.7078 22.6444V36.5078H34.1678V21.3647C34.1678 16.0753 30.67 12.5775 25.8071 12.5775Z" fill="white"/>
<path d="M61.4169 24.0094C61.4169 17.7389 56.5967 12.5775 49.9423 12.5775C43.2879 12.5775 38.1692 17.7816 38.1692 24.7772C38.1692 31.6023 43.1173 37.0196 50.3262 37.0196C55.1891 37.0196 59.0281 34.6309 60.4785 31.261L56.0422 29.0855C54.9758 30.9624 53.0562 32.2421 50.3689 32.2421C46.8284 32.2421 44.1837 29.9387 43.8425 26.3555H61.1183C61.3316 25.7157 61.4169 24.8199 61.4169 24.0094ZM43.9704 22.2179C44.6103 18.9333 46.9564 17.0564 49.9423 17.0564C52.8856 17.0564 55.3597 19.1893 55.573 22.2179H43.9704Z" fill="white"/>
<path d="M83.4446 4.25951V15.6061C81.781 13.7292 79.0936 12.6202 76.065 12.6202C69.2827 12.6202 64.1213 17.9949 64.1213 24.8626C64.1213 31.7302 69.2827 37.0196 76.065 37.0196C79.1363 37.0196 82.0369 35.9106 83.7859 33.9057V36.5078H88.9046V4.25951H83.4446ZM76.6622 32.0288C72.6952 32.0288 69.7945 29.0429 69.7945 24.8626C69.7945 20.6822 72.6952 17.6536 76.6622 17.6536C80.5866 17.6536 83.4446 20.6396 83.4446 24.8626C83.4446 29.0855 80.5866 32.0288 76.6622 32.0288Z" fill="white"/>
<path d="M94.4743 10.0181H99.9343V4.34483H94.4743V10.0181ZM94.4743 36.5078H99.9343V13.0894H94.4743V36.5078Z" fill="white"/>
<path d="M114.73 37.0196C120.19 37.0196 123.987 34.119 123.987 29.896C123.987 26.6968 121.768 24.2654 117.631 23.1563L113.322 22.0046C112.128 21.6207 110.507 21.0235 110.507 19.4879C110.507 18.0375 111.915 17.0991 114.048 17.0991C116.735 17.0991 118.825 18.4214 119.721 20.5969L123.944 18.6347C122.494 14.881 118.74 12.5775 114.048 12.5775C108.716 12.5775 105.132 15.4781 105.132 19.7011C105.132 22.9004 107.18 25.2891 111.403 26.3982L115.498 27.4646C116.863 27.8485 118.612 28.4457 118.612 30.0666C118.612 31.6023 117.034 32.626 114.73 32.626C111.872 32.626 109.569 31.1757 108.332 28.4457L104.109 30.4079C105.687 34.7162 109.867 37.0196 114.73 37.0196Z" fill="white"/>
<path d="M128.302 36.5078H133.762V4.21686H128.302V36.5078Z" fill="white"/>
<path d="M139.338 10.0181H144.799V4.34483H139.338V10.0181ZM139.338 36.5078H144.799V13.0894H139.338V36.5078Z" fill="white"/>
<path d="M162.324 12.5775C159.338 12.5775 156.864 13.7292 155.542 15.8194V13.0894H150.38V36.5078H155.841V22.6444C155.841 19.5732 157.888 17.611 160.831 17.611C163.817 17.611 165.822 19.6158 165.822 22.6444V36.5078H171.282V21.3647C171.282 16.2033 167.571 12.5775 162.324 12.5775Z" fill="white"/>
<path d="M198.509 24.0094C198.509 17.7389 193.689 12.5775 187.034 12.5775C180.38 12.5775 175.261 17.7816 175.261 24.7772C175.261 31.6023 180.209 37.0196 187.418 37.0196C192.281 37.0196 196.12 34.6309 197.57 31.261L193.134 29.0855C192.068 30.9624 190.148 32.2421 187.461 32.2421C183.92 32.2421 181.276 29.9387 180.934 26.3555H198.21C198.424 25.7157 198.509 24.8199 198.509 24.0094ZM181.062 22.2179C181.702 18.9333 184.048 17.0564 187.034 17.0564C189.978 17.0564 192.452 19.1893 192.665 22.2179H181.062Z" fill="white"/>
</svg>
