<svg width="27" height="36" viewBox="0 0 27 36" fill="none" xmlns="http://www.w3.org/2000/svg">
<path fill-rule="evenodd" clip-rule="evenodd" d="M27 13.5938C27 18.638 24.2715 23.0406 20.2195 25.3866C20.2397 25.6406 20.25 25.8972 20.25 26.1563C20.25 31.5928 15.7169 36 10.125 36C4.53312 36 0 31.5928 0 26.1563C0 25.8814 0.0115825 25.6093 0.0342986 25.3402L0 25.3125V12.0938C0.718561 5.26765 6.53043 0 13.5 0C20.9558 0 27 6.08613 27 13.5938ZM15.1635 6.68882C12.8555 6.28995 10.5782 7.04949 9.38595 7.69215C8.53923 8.14857 7.82152 8.97981 7.29002 9.79427C6.73279 10.6481 6.25325 11.6785 5.97236 12.7351C5.69738 13.7694 5.57303 14.9809 5.90712 16.1142C6.26879 17.3411 7.14132 18.3579 8.55397 18.835C9.3522 19.1046 9.7859 19.3298 9.99962 19.4929C9.94989 19.6159 9.83597 19.8408 9.5766 20.1896C9.15721 20.7536 8.48549 21.4741 7.49516 22.4028C6.82622 23.0301 6.79249 24.0809 7.41981 24.7499C8.04713 25.4188 9.09795 25.4525 9.76688 24.8252C10.8082 23.8487 11.6471 22.9706 12.2415 22.1713C12.8113 21.405 13.3103 20.5113 13.3551 19.5284C13.4068 18.3902 12.8462 17.5203 12.1054 16.9242C11.4318 16.3823 10.5406 16.0007 9.6166 15.6887C9.42805 15.625 9.3208 15.5497 9.25306 15.4779C9.1853 15.4062 9.13306 15.3126 9.09256 15.1752C8.99461 14.8429 8.99257 14.3003 9.18184 13.5883C9.36526 12.8984 9.69209 12.1901 10.0712 11.6092C10.4761 10.9887 10.8246 10.6894 10.9617 10.6155C11.7371 10.1975 13.2505 9.72842 14.598 9.96128C15.2294 10.0704 15.8001 10.3275 16.2809 10.8033C16.7664 11.2838 17.2579 12.0845 17.5607 13.4387C17.7607 14.3337 18.6484 14.897 19.5434 14.6969C20.4383 14.4969 21.0017 13.6092 20.8016 12.7142C20.3914 10.8789 19.6465 9.46174 18.6169 8.4428C17.5824 7.4191 16.3593 6.89548 15.1635 6.68882ZM10.0454 19.31L10.046 19.3069C10.046 19.3069 10.0458 19.3079 10.0454 19.31Z" fill="white"/>
</svg>
