<svg width="42" height="32" viewBox="0 0 42 32" fill="none" xmlns="http://www.w3.org/2000/svg">
<path d="M20.2595 9.42812C20.4564 9.40702 20.6532 9.39999 20.8501 9.39999C24.5767 9.39999 27.6001 12.3601 27.6001 16.15C27.6001 19.8766 24.5767 22.9 20.8501 22.9C17.0603 22.9 14.1001 19.8766 14.1001 16.15C14.1001 15.9531 14.1071 15.7562 14.1282 15.5594C14.7821 15.8758 15.5415 16.15 16.3501 16.15C18.8321 16.15 20.8501 14.132 20.8501 11.65C20.8501 10.8414 20.5759 10.082 20.2595 9.42812ZM34.3923 6.06718C37.6829 9.11874 39.8837 12.7117 40.9243 15.2851C41.1564 15.8406 41.1564 16.4594 40.9243 17.0148C39.8837 19.525 37.6829 23.118 34.3923 26.2328C31.0806 29.3125 26.5314 31.9 20.8501 31.9C15.1689 31.9 10.6196 29.3125 7.30933 26.2328C4.0187 23.118 1.81933 19.525 0.773146 17.0148C0.542415 16.4594 0.542415 15.8406 0.773146 15.2851C1.81933 12.7117 4.0187 9.11874 7.30933 6.06718C10.6196 2.99031 15.1689 0.399994 20.8501 0.399994C26.5314 0.399994 31.0806 2.99031 34.3923 6.06718ZM20.8501 6.02499C15.2603 6.02499 10.7251 10.5601 10.7251 16.15C10.7251 21.7398 15.2603 26.275 20.8501 26.275C26.44 26.275 30.9751 21.7398 30.9751 16.15C30.9751 10.5601 26.44 6.02499 20.8501 6.02499Z" fill="white"/>
</svg>
