<svg width="40" height="40" viewBox="0 0 40 40" fill="none" xmlns="http://www.w3.org/2000/svg">
<path fill-rule="evenodd" clip-rule="evenodd" d="M20 38C29.9411 38 38 29.9411 38 20C38 10.0589 29.9411 2 20 2C10.0589 2 2 10.0589 2 20C2 29.9411 10.0589 38 20 38ZM20 40C31.0457 40 40 31.0457 40 20C40 8.9543 31.0457 0 20 0C8.9543 0 0 8.9543 0 20C0 31.0457 8.9543 40 20 40ZM19.9642 29.3749L19.9726 29.375H19.9697L19.9642 29.3749ZM20.0303 29.375H20.0274L20.0358 29.3749L20.0303 29.375ZM19.9355 29.3748L19.9446 29.3748H19.9394L19.9355 29.3748ZM20.0606 29.3748H20.0554L20.0645 29.3748L20.0606 29.3748ZM19.9079 29.3746L19.914 29.3746L19.9091 29.3746H19.9079ZM20.0909 29.3746L20.086 29.3746L20.0921 29.3746H20.0909ZM20.1211 29.3742L20.119 29.3743L20.1271 29.3742L20.1211 29.3742ZM19.8729 29.3742L19.881 29.3743L19.8789 29.3742L19.8729 29.3742ZM20.1513 29.3738L20.1464 29.3739L20.1564 29.3737L20.1513 29.3738ZM19.8436 29.3737L19.8536 29.3739L19.8487 29.3738L19.8436 29.3737ZM20.1815 29.3733L20.1748 29.3734L20.1841 29.3732L20.1815 29.3733ZM19.8159 29.3732L19.8252 29.3734L19.8185 29.3733L19.8159 29.3732ZM19.7816 29.3725L19.7898 29.3727L19.7883 29.3727L19.7816 29.3725ZM20.2117 29.3727L20.2102 29.3727L20.2184 29.3725L20.2117 29.3727ZM19.7515 29.3717L19.7628 29.372L19.7582 29.3719L19.7515 29.3717ZM20.2418 29.3719L20.2372 29.372L20.2485 29.3717L20.2418 29.3719ZM20.2719 29.3711L20.2646 29.3713L20.2762 29.371L20.2719 29.3711ZM19.7238 29.371L19.7354 29.3713L19.7281 29.3711L19.7238 29.371ZM19.6975 29.3702L19.7057 29.3705L19.6979 29.3702L19.6908 29.37L19.6975 29.3702ZM20.302 29.3702L20.2943 29.3705L20.3025 29.3702L20.3092 29.37L20.302 29.3702ZM20.3321 29.3692L20.328 29.3694L20.3406 29.3689L20.3321 29.3692ZM19.6594 29.3689L19.672 29.3694L19.6679 29.3692L19.6594 29.3689ZM19.6319 29.3679L19.6452 29.3684L19.6378 29.3681L19.6319 29.3679ZM20.3622 29.3681L20.3548 29.3684L20.3681 29.3679L20.3622 29.3681ZM19.605 29.3668L19.618 29.3673L19.6078 29.3669L19.605 29.3668ZM20.3922 29.3669L20.382 29.3673L20.395 29.3668L20.3922 29.3669ZM19.5673 29.3651L19.5812 29.3658L19.5778 29.3657L19.5673 29.3651ZM20.4222 29.3657L20.4188 29.3658L20.4327 29.3651L20.4222 29.3657ZM19.5402 29.3639L19.5547 29.3646L19.5478 29.3643L19.5402 29.3639ZM20.4522 29.3643L20.4453 29.3646L20.4598 29.3639L20.4522 29.3643ZM19.5136 29.3625L19.5281 29.3633L19.5179 29.3628L19.5136 29.3625ZM20.4821 29.3628L20.4719 29.3633L20.4864 29.3625L20.4821 29.3628ZM20.5121 29.3612L20.4988 29.3619L20.5106 29.3613L20.5244 29.3605L20.5121 29.3612ZM19.4894 29.3613L19.5012 29.3619L19.4879 29.3612L19.4756 29.3605L19.4894 29.3613ZM20.542 29.3595L20.5361 29.3599L20.551 29.359L20.542 29.3595ZM19.449 29.359L19.4639 29.3599L19.458 29.3595L19.449 29.359ZM19.4226 29.3575L19.4374 29.3583L19.4282 29.3578L19.4226 29.3575ZM20.5718 29.3578L20.5626 29.3583L20.5774 29.3575L20.5718 29.3578ZM19.3974 29.3559L19.4107 29.3567L19.3983 29.356L19.3858 29.3552L19.3974 29.3559ZM20.6017 29.356L20.5893 29.3567L20.6026 29.3559L20.6142 29.3552L20.6017 29.356ZM20.6315 29.354L20.6271 29.3543L20.6412 29.3534L20.6315 29.354ZM19.3588 29.3534L19.3729 29.3543L19.3685 29.354L19.3588 29.3534ZM19.3324 29.3515L19.3463 29.3525L19.3387 29.352L19.3324 29.3515ZM20.6613 29.352L20.6537 29.3525L20.6676 29.3515L20.6613 29.352ZM19.306 29.3497L19.3188 29.3506L19.3089 29.3499L19.306 29.3497ZM20.6911 29.3499L20.6812 29.3506L20.694 29.3497L20.6911 29.3499ZM19.2706 29.347L19.2818 29.3478L19.2791 29.3476L19.2706 29.347ZM20.7209 29.3476L20.7182 29.3478L20.7294 29.347L20.7209 29.3476ZM20.7506 29.3453L20.7452 29.3457L20.7566 29.3448L20.7506 29.3453ZM19.2434 29.3448L19.2548 29.3457L19.2494 29.3453L19.2434 29.3448ZM19.2168 29.3427L19.2265 29.3435L19.2197 29.3429L19.2168 29.3427ZM20.7803 29.3429L20.7735 29.3435L20.7832 29.3427L20.7803 29.3429ZM19.1876 29.3402L19.1905 29.3405L19.19 29.3404L19.1876 29.3402ZM20.81 29.3404L20.8095 29.3405L20.8124 29.3402L20.81 29.3404ZM20.8396 29.3378L20.837 29.338L20.8436 29.3375L20.8396 29.3378ZM19.1564 29.3375L19.163 29.338L19.1604 29.3378L19.1564 29.3375ZM19.1289 29.335L19.1338 29.3354L19.1308 29.3352L19.1289 29.335ZM20.8692 29.3352L20.8662 29.3354L20.8711 29.335L20.8692 29.3352ZM18.5352 29.261C14.0557 28.5569 10.625 24.6759 10.625 20C10.625 14.8258 14.8258 10.625 20 10.625C25.1742 10.625 29.375 14.8258 29.375 20C29.375 24.6759 25.9443 28.5569 21.4648 29.261V22.71H23.6493L24.0649 20H21.4648V18.2414C21.4648 17.5 21.8281 16.7773 22.9926 16.7773H24.1748V14.4702C24.1748 14.4702 23.102 14.2871 22.0762 14.2871C19.9348 14.2871 18.5352 15.585 18.5352 17.9346V20H16.1548V22.71H18.5352V29.261Z" fill="white"/>
</svg>
