<svg width="40" height="36" viewBox="0 0 40 36" fill="none" xmlns="http://www.w3.org/2000/svg">
<path d="M24.606 17.0196L20.8101 25.0151C20.3524 25.9794 19.0268 25.9488 18.6071 24.9649L14.2688 14.8098L11.9797 20.5754L4.50678 20.5714L17.9444 35.2123C18.9088 36.2626 20.4856 36.2626 21.4508 35.2123L34.8884 20.5714L26.349 20.5718L24.606 17.0196ZM35.4841 2.47995C31.3431 -1.29519 25.0098 -0.613769 21.2009 3.52941L19.7002 5.16305L18.1996 3.52941C14.3907 -0.613769 8.06042 -1.29519 3.91717 2.47995C-0.458427 6.46884 -0.955862 13.3072 2.34564 18H10.3442L13.0812 11.0692C13.5008 10.0343 14.8836 10.015 15.3315 11.0391L19.7658 21.4372L23.5037 13.5623C23.952 12.6181 25.2391 12.6181 25.6877 13.5623L27.7955 18.002H37.051C40.3594 13.3072 39.8566 6.46884 35.4841 2.47995Z" fill="white"/>
</svg>
