<svg width="40" height="40" viewBox="0 0 40 40" fill="none" xmlns="http://www.w3.org/2000/svg">
<path fill-rule="evenodd" clip-rule="evenodd" d="M38 20C38 29.9411 29.9411 38 20 38C10.0589 38 2 29.9411 2 20C2 10.0589 10.0589 2 20 2C29.9411 2 38 10.0589 38 20ZM40 20C40 31.0457 31.0457 40 20 40C8.9543 40 0 31.0457 0 20C0 8.9543 8.9543 0 20 0C31.0457 0 40 8.9543 40 20ZM16.4568 11.458C17.3734 11.4161 17.6661 11.4062 20 11.4062C22.3339 11.4062 22.6266 11.4161 23.5432 11.458C24.4579 11.4997 25.0826 11.645 25.6292 11.8574C26.1943 12.077 26.6736 12.3709 27.1514 12.8486C27.6291 13.3264 27.923 13.8057 28.1426 14.3708C28.355 14.9174 28.5003 15.5421 28.542 16.4568C28.5839 17.3734 28.5938 17.6661 28.5938 20C28.5938 22.3339 28.5839 22.6266 28.542 23.5432C28.5003 24.4579 28.355 25.0826 28.1426 25.6292C27.923 26.1943 27.6291 26.6736 27.1514 27.1514C26.6736 27.6291 26.1943 27.923 25.6292 28.1426C25.0826 28.355 24.4579 28.5003 23.5432 28.542C22.6266 28.5839 22.3339 28.5938 20 28.5938C17.6661 28.5938 17.3734 28.5839 16.4568 28.542C15.5421 28.5003 14.9174 28.355 14.3707 28.1426C13.8056 27.923 13.3264 27.6291 12.8486 27.1514C12.3709 26.6736 12.077 26.1943 11.8574 25.6292C11.6449 25.0826 11.4997 24.4579 11.4579 23.5432C11.4161 22.6266 11.4062 22.3339 11.4062 20C11.4062 17.6661 11.4161 17.3734 11.4579 16.4568C11.4997 15.5421 11.6449 14.9174 11.8574 14.3708C12.077 13.8057 12.3709 13.3264 12.8486 12.8486C13.3264 12.3709 13.8056 12.077 14.3707 11.8574C14.9174 11.645 15.5421 11.4997 16.4568 11.458ZM23.4726 13.0048C22.5664 12.9634 22.2946 12.9547 20 12.9547C17.7054 12.9547 17.4336 12.9634 16.5274 13.0048C15.6895 13.043 15.2345 13.183 14.9317 13.3007C14.5305 13.4566 14.2442 13.6428 13.9435 13.9435C13.6428 14.2442 13.4565 14.5306 13.3007 14.9317C13.183 15.2345 13.043 15.6895 13.0047 16.5274C12.9634 17.4336 12.9547 17.7054 12.9547 20C12.9547 22.2946 12.9634 22.5664 13.0047 23.4726C13.043 24.3105 13.183 24.7655 13.3007 25.0683C13.4565 25.4695 13.6428 25.7558 13.9435 26.0565C14.2442 26.3572 14.5305 26.5434 14.9317 26.6993C15.2345 26.817 15.6895 26.957 16.5274 26.9952C17.4335 27.0366 17.7052 27.0453 20 27.0453C22.2948 27.0453 22.5666 27.0366 23.4726 26.9952C24.3105 26.957 24.7655 26.817 25.0683 26.6993C25.4695 26.5434 25.7558 26.3572 26.0565 26.0565C26.3572 25.7558 26.5434 25.4695 26.6993 25.0683C26.817 24.7655 26.957 24.3105 26.9952 23.4726C27.0366 22.5664 27.0453 22.2946 27.0453 20C27.0453 17.7054 27.0366 17.4336 26.9952 16.5274C26.957 15.6895 26.817 15.2345 26.6993 14.9317C26.5434 14.5306 26.3572 14.2442 26.0565 13.9435C25.7558 13.6428 25.4695 13.4566 25.0683 13.3007C24.7655 13.183 24.3105 13.043 23.4726 13.0048ZM20 22.8647C18.4179 22.8647 17.1354 21.5822 17.1354 20.0002C17.1354 18.4181 18.4179 17.1356 20 17.1356C21.5821 17.1356 22.8646 18.4181 22.8646 20.0002C22.8646 21.5822 21.5821 22.8647 20 22.8647ZM20 15.5872C17.5628 15.5872 15.587 17.5629 15.587 20.0002C15.587 22.4374 17.5628 24.4132 20 24.4132C22.4373 24.4132 24.413 22.4374 24.413 20.0002C24.413 17.5629 22.4373 15.5872 20 15.5872ZM24.5873 16.4439C25.1568 16.4439 25.6186 15.9822 25.6186 15.4126C25.6186 14.8431 25.1568 14.3814 24.5873 14.3814C24.0178 14.3814 23.5561 14.8431 23.5561 15.4126C23.5561 15.9822 24.0178 16.4439 24.5873 16.4439Z" fill="white"/>
</svg>
