<svg width="40" height="40" viewBox="0 0 40 40" fill="none" xmlns="http://www.w3.org/2000/svg">
<path fill-rule="evenodd" clip-rule="evenodd" d="M20 38C29.9411 38 38 29.9411 38 20C38 10.0589 29.9411 2 20 2C10.0589 2 2 10.0589 2 20C2 29.9411 10.0589 38 20 38ZM20 40C31.0457 40 40 31.0457 40 20C40 8.9543 31.0457 0 20 0C8.9543 0 0 8.9543 0 20C0 31.0457 8.9543 40 20 40ZM28.5938 13.5547C28.5938 12.3689 27.6311 11.4062 26.4453 11.4062H13.5547C12.3689 11.4062 11.4062 12.3689 11.4062 13.5547V26.4453C11.4062 27.6311 12.3689 28.5938 13.5547 28.5938H26.4453C27.6311 28.5938 28.5938 27.6311 28.5938 26.4453V13.5547ZM13.4558 17.4042H16.3347V26.0638H13.4558V17.4042ZM14.9146 13.2285C13.9297 13.2285 13.2861 13.876 13.2861 14.7247C13.2861 15.5556 13.9101 16.2211 14.8765 16.2211H14.8951C15.899 16.2211 16.5238 15.5556 16.5238 14.7247C16.5052 13.876 15.899 13.2285 14.9146 13.2285ZM20.8059 18.6298C21.1889 18.0399 21.8729 17.2001 23.4 17.2001C25.2938 17.2001 26.714 18.4375 26.714 21.0974V26.0633H23.8357V21.4301C23.8357 20.2665 23.4186 19.4721 22.3776 19.4721C21.5824 19.4721 21.1085 20.0076 20.9008 20.5246C20.8245 20.7096 20.8059 20.9684 20.8059 21.2272V26.0633H17.9277C17.9277 26.0633 17.9659 18.216 17.9277 17.4038H20.8059V18.6298Z" fill="white"/>
</svg>
