<svg width="40" height="40" viewBox="0 0 40 40" fill="none" xmlns="http://www.w3.org/2000/svg">
<g clip-path="url(#clip0_575_2181)">
<path d="M31.6128 24.7786C30.7939 23.9259 29.8062 23.4701 28.7593 23.4701C27.7209 23.4701 26.7247 23.9175 25.8721 24.7702L23.2043 27.4295C22.9848 27.3113 22.7653 27.2015 22.5543 27.0918C22.2503 26.9398 21.9633 26.7963 21.7185 26.6444C19.2196 25.0572 16.9486 22.9888 14.7705 20.3126C13.7152 18.9788 13.006 17.8559 12.4911 16.7162C13.1833 16.0831 13.8249 15.4246 14.4497 14.7914C14.6861 14.555 14.9224 14.3102 15.1588 14.0738C16.9317 12.3009 16.9317 10.0046 15.1588 8.23175L12.8541 5.92701C12.5924 5.6653 12.3222 5.39515 12.069 5.125C11.5624 4.60158 11.0306 4.06127 10.4818 3.55473C9.6629 2.74428 8.6836 2.31372 7.65364 2.31372C6.62368 2.31372 5.6275 2.74428 4.78327 3.55473C4.77483 3.56318 4.77483 3.56318 4.76638 3.57162L1.89601 6.46732C0.815398 7.54793 0.199112 8.86493 0.0640356 10.393C-0.138579 12.8581 0.587457 15.1544 1.14465 16.6571C2.5123 20.3464 4.55533 23.7655 7.60299 27.4295C11.3007 31.8448 15.7498 35.3315 20.832 37.7882C22.7738 38.7084 25.3655 39.7974 28.2612 39.9831C28.4385 39.9916 28.6243 40 28.7931 40C30.7433 40 32.3811 39.2993 33.6643 37.9063C33.6727 37.8895 33.6896 37.881 33.6981 37.8641C34.1371 37.3323 34.6436 36.8511 35.1755 36.3361C35.5385 35.99 35.9099 35.6269 36.273 35.247C37.1087 34.3775 37.5477 33.3644 37.5477 32.326C37.5477 31.2792 37.1003 30.2745 36.2476 29.4303L31.6128 24.7786ZM34.6352 33.6683C34.6267 33.6683 34.6267 33.6768 34.6352 33.6683C34.3059 34.0229 33.9682 34.3437 33.6052 34.6983C33.0564 35.2217 32.4993 35.7705 31.9758 36.3867C31.1232 37.2985 30.1185 37.7291 28.8015 37.7291C28.6749 37.7291 28.5398 37.7291 28.4132 37.7206C25.9058 37.5602 23.5758 36.5809 21.8282 35.7451C17.0499 33.4319 12.8541 30.1479 9.36742 25.9859C6.48861 22.5161 4.56377 19.308 3.28899 15.8636C2.50385 13.7614 2.21682 12.1236 2.34345 10.5787C2.42787 9.59096 2.80778 8.77206 3.50848 8.07135L6.3873 5.19254C6.80097 4.80419 7.23997 4.59313 7.67053 4.59313C8.20239 4.59313 8.63295 4.91394 8.9031 5.18409C8.91154 5.19254 8.91998 5.20098 8.92842 5.20942C9.4434 5.69063 9.93306 6.18872 10.448 6.72059C10.7097 6.99074 10.9799 7.26089 11.2501 7.53949L13.5548 9.84423C14.4497 10.7391 14.4497 11.5665 13.5548 12.4613C13.31 12.7062 13.0736 12.951 12.8288 13.1874C12.1196 13.9134 11.4442 14.5888 10.7097 15.2473C10.6929 15.2642 10.676 15.2726 10.6675 15.2895C9.9415 16.0155 10.0766 16.7247 10.2285 17.2059C10.237 17.2312 10.2454 17.2565 10.2539 17.2819C10.8533 18.7339 11.6975 20.1016 12.9807 21.7309L12.9892 21.7394C15.3192 24.6098 17.7759 26.847 20.4859 28.5607C20.832 28.7802 21.1866 28.9575 21.5243 29.1264C21.8282 29.2783 22.1153 29.4219 22.3601 29.5738C22.3939 29.5907 22.4276 29.616 22.4614 29.6329C22.7484 29.7764 23.0186 29.844 23.2972 29.844C23.9979 29.844 24.4369 29.405 24.5804 29.2615L27.4677 26.3742C27.7547 26.0872 28.2106 25.741 28.7424 25.741C29.2659 25.741 29.6964 26.0703 29.9581 26.3573C29.9666 26.3658 29.9666 26.3658 29.975 26.3742L34.6267 31.0259C35.4963 31.887 35.4963 32.7734 34.6352 33.6683Z" fill="white"/>
<path d="M21.6173 9.51505C23.8292 9.88651 25.8385 10.9334 27.4425 12.5374C29.0465 14.1414 30.0849 16.1507 30.4648 18.3626C30.5577 18.9197 31.0389 19.3081 31.5876 19.3081C31.6552 19.3081 31.7143 19.2996 31.7818 19.2912C32.4065 19.1899 32.8202 18.5989 32.7189 17.9742C32.263 15.298 30.9967 12.8582 29.0634 10.9249C27.1301 8.99163 24.6903 7.72529 22.0141 7.26941C21.3894 7.1681 20.8069 7.58177 20.6971 8.19806C20.5874 8.81434 20.9926 9.41375 21.6173 9.51505Z" fill="white"/>
<path d="M39.9537 17.6448C39.2023 13.238 37.1255 9.22789 33.9344 6.03672C30.7432 2.84554 26.7331 0.768738 22.3262 0.0173754C21.71 -0.0923741 21.1274 0.32974 21.0177 0.946025C20.9164 1.57075 21.3301 2.15327 21.9548 2.26302C25.8889 2.92996 29.4768 4.7957 32.3303 7.64075C35.1838 10.4942 37.0411 14.0822 37.7081 18.0163C37.8009 18.5735 38.2821 18.9618 38.8309 18.9618C38.8984 18.9618 38.9575 18.9534 39.0251 18.945C39.6413 18.8521 40.0635 18.2611 39.9537 17.6448Z" fill="white"/>
</g>
<defs>
<clipPath id="clip0_575_2181">
<rect width="40" height="40" fill="white"/>
</clipPath>
</defs>
</svg>
