<svg width="36" height="36" viewBox="0 0 36 36" fill="none" xmlns="http://www.w3.org/2000/svg">
<path d="M30.5455 8.23658C27.5332 8.23658 25.0909 10.6788 25.0909 13.6911C25.0909 15.9302 26.4416 17.8488 28.3711 18.6895V24.0554C28.3711 27.9588 24.945 31.1463 20.7348 31.1463C16.6439 31.1463 13.2825 28.1395 13.1052 24.3807C18.0068 23.3593 21.8182 18.9616 21.8182 13.6298V3.09499C21.8182 2.31908 21.2625 1.63726 20.5036 1.49272L16.2136 0.632772C15.3273 0.453795 14.4723 1.02591 14.2936 1.91254L14.0727 2.9859C13.8938 3.87226 14.469 4.73067 15.3552 4.90999L17.4477 5.3231V13.6025C17.4477 17.2079 14.5752 20.1909 10.9616 20.225C7.32205 20.2591 4.36091 17.3232 4.36091 13.6843L4.35614 5.32999L6.45068 4.91326C7.33705 4.74281 7.91045 3.88031 7.73114 2.99394L7.52045 1.9209C7.35 1.03453 6.4875 0.461124 5.60114 0.640443L1.31455 1.4859C0.555682 1.63931 0 2.3109 0 3.09499V13.6904C0 18.9575 3.7575 23.3723 8.73409 24.3813C8.91136 30.5525 14.2227 35.5093 20.7273 35.5093C27.3409 35.5093 32.7273 30.3704 32.7273 24.0548V18.6888C34.652 17.8461 36 15.9302 36 13.6945C36 10.6775 33.5591 8.23658 30.5455 8.23658ZM30.5455 15.3275C29.642 15.3275 28.9091 14.5945 28.9091 13.6911C28.9091 12.7877 29.6386 12.0548 30.5455 12.0548C31.4523 12.0548 32.1818 12.7843 32.1818 13.6911C32.1818 14.5979 31.4523 15.3275 30.5455 15.3275Z" fill="white"/>
</svg>
