<svg width="32" height="36" viewBox="0 0 32 36" fill="none" xmlns="http://www.w3.org/2000/svg">
<path d="M29.4923 14.5277C27.8823 16.7507 27.2371 19.3603 26.9873 22.0758C26.6861 25.3972 26.2814 28.7009 25.5499 31.9419L25.0076 34.3232C24.7923 35.2986 23.9399 35.9928 22.9677 35.9928C22.0036 35.9928 21.1689 35.325 20.9359 34.3674L18.5601 24.6299C18.2444 23.3493 17.1196 22.4494 15.8261 22.4494C14.5261 22.4494 13.3989 23.3541 13.0888 24.6372L10.7131 34.3747C10.4806 35.3324 9.63729 36 8.68122 36C7.70023 36 6.85664 35.3059 6.63248 34.3305L6.09877 31.9491C5.36725 28.7065 4.96272 25.4028 4.72491 22.0831C4.41181 19.292 3.76666 16.7532 2.1566 14.5277C0.650178 12.4452 -0.0214852 9.69506 0.675888 6.76899C1.43336 3.58823 3.92092 1.00442 7.01089 0.178495C8.62899 -0.243303 10.1876 0.143346 11.6161 0.907764L18.5368 5.45033C19.0705 5.80183 19.7508 5.59977 20.0601 5.10775C20.3871 4.58922 20.2409 3.89538 19.7243 3.55232L17.7792 2.27809C18.0202 2.15508 18.2785 2.05835 18.5023 1.8914C20.3012 0.53843 22.419 -0.410415 24.6396 0.177692C27.7296 1.00361 30.2178 3.58662 30.9747 6.76819C31.6696 9.69908 31.0028 12.4548 29.4923 14.5277Z" fill="white"/>
</svg>
