<svg width="40" height="40" viewBox="0 0 40 40" fill="none" xmlns="http://www.w3.org/2000/svg">
<path fill-rule="evenodd" clip-rule="evenodd" d="M38 20C38 29.9411 29.9411 38 20 38C10.0589 38 2 29.9411 2 20C2 10.0589 10.0589 2 20 2C29.9411 2 38 10.0589 38 20ZM40 20C40 31.0457 31.0457 40 20 40C8.9543 40 0 31.0457 0 20C0 8.9543 8.9543 0 20 0C31.0457 0 40 8.9543 40 20ZM28.375 17.0755C28.375 22.8104 24.0092 29.4235 16.0271 29.4235V29.4201C13.6691 29.4233 11.3595 28.7476 9.375 27.4741C9.71782 27.5152 10.0628 27.5361 10.4081 27.5367C12.3623 27.5387 14.2613 26.8828 15.7978 25.6753C13.9457 25.6405 12.3104 24.425 11.7433 22.6615C12.3934 22.7867 13.0639 22.7613 13.7028 22.587C11.6855 22.1796 10.2217 20.3908 10.2211 18.3328V18.2778C10.8245 18.6143 11.5002 18.8006 12.1908 18.821C10.2945 17.5548 9.70183 14.9995 10.8472 13.0278C13.0498 15.7376 16.3037 17.3872 19.7913 17.562C19.7166 17.24 19.6789 16.9105 19.6789 16.5799C19.6789 14.1969 21.6397 12.236 24.0228 12.236C25.2205 12.236 26.3666 12.7314 27.1871 13.604C28.1589 13.4123 29.091 13.0561 29.9429 12.5506C29.619 13.5553 28.9407 14.4088 28.0349 14.951C28.8952 14.8493 29.7355 14.6192 30.5275 14.2682C29.9449 15.1396 29.2117 15.9002 28.3624 16.5146C28.375 16.7007 28.375 16.8877 28.375 17.0754V17.0755Z" fill="white"/>
</svg>
